<svg width="452" height="228" viewBox="0 0 452 228" fill="none" xmlns="http://www.w3.org/2000/svg">
<path d="M8.81944 210.63C-11.8287 188.824 10.2593 130.486 43.5648 94.8102C84.0648 51.4352 139.898 14.9491 247.819 27.3565C336.935 37.6065 392.264 82.5509 411.083 105.704C441.009 142.5 462.63 194.417 444.606 215.889C414.361 251.931 289.398 190.606 221.616 189.356C153.833 188.106 54.9259 259.241 8.81944 210.63Z" fill="white"/>
<path d="M329.06 175.792H93.8285L44.3517 14.0462C43.8784 12.5014 43.7744 10.867 44.0481 9.27468C44.3219 7.68233 44.9657 6.1765 45.9277 4.87844C46.8898 3.58038 48.1432 2.52636 49.5871 1.80124C51.0309 1.07612 52.6249 0.70016 54.2406 0.703637H267.861C270.072 0.703197 272.225 1.41282 274.003 2.72801C275.781 4.0432 277.089 5.89445 277.736 8.00919L329.06 175.792Z" fill="#7C7C7C"/>
<path d="M290.537 156.537H121.778C119.546 156.537 117.374 155.821 115.58 154.494C113.785 153.168 112.464 151.3 111.81 149.167L74.3426 26.676C74.1042 25.8987 74.0516 25.0764 74.189 24.2751C74.3263 23.4738 74.6499 22.7159 75.1335 22.0625C75.6172 21.409 76.2475 20.8782 76.9737 20.5128C77.7 20.1473 78.5018 19.9574 79.3148 19.9584H248.074C250.306 19.9585 252.478 20.6745 254.272 22.0012C256.066 23.3279 257.388 25.1953 258.042 27.3288L295.509 149.819C295.748 150.597 295.8 151.419 295.663 152.22C295.526 153.022 295.202 153.78 294.718 154.433C294.235 155.086 293.604 155.617 292.878 155.983C292.152 156.348 291.35 156.538 290.537 156.537V156.537Z" fill="#232323"/>
<path d="M93.8286 175.792H409.796C411.928 175.792 413.972 176.639 415.479 178.146C416.986 179.653 417.833 181.697 417.833 183.829V194.565C417.833 196.696 416.986 198.741 415.479 200.248C413.972 201.755 411.928 202.602 409.796 202.602H101.866C100.81 202.602 99.7651 202.394 98.79 201.99C97.8149 201.586 96.9289 200.994 96.1826 200.248C95.4363 199.502 94.8443 198.616 94.4404 197.641C94.0365 196.665 93.8286 195.62 93.8286 194.565V175.792Z" fill="#424242"/>
<path d="M132.338 94.1482L151.555 72.6991" stroke="#4FFEF9" stroke-width="18" stroke-miterlimit="10" stroke-linecap="round"/>
<path d="M156.093 94.1482L127.153 72.6991" stroke="#4FFEF9" stroke-width="18" stroke-miterlimit="10" stroke-linecap="round"/>
<path d="M227.236 94.1482L246.454 72.6991" stroke="#4FFEF9" stroke-width="18" stroke-miterlimit="10" stroke-linecap="round"/>
<path d="M250.991 94.1482L222.046 72.6991" stroke="#4FFEF9" stroke-width="18" stroke-miterlimit="10" stroke-linecap="round"/>
<path d="M179.736 107.704C179.736 107.704 194.801 99.3981 210.102 107.704" stroke="#4FFEF9" stroke-width="18" stroke-miterlimit="10" stroke-linecap="round"/>
<path d="M344.259 82.3888C342.518 82.3843 340.83 81.7853 339.476 80.6908C338.121 79.5963 337.181 78.072 336.81 76.3703C335.394 69.9861 334.496 65.1111 335.746 60.5509C337.246 55.1435 341.204 51.9768 345.468 48.949C348.343 46.912 350.338 43.8194 350.56 41.0787C350.699 39.2592 350.06 37.7268 348.547 36.2638C344.074 31.9259 336.834 38.6759 336.509 38.9675C336.509 38.9675 330.426 44.1157 325.908 38.7176C321.389 33.3194 325.908 27.9675 325.908 27.9675C328.822 25.2613 332.176 23.0697 335.824 21.4861C344.523 17.7824 352.81 19.1713 359.162 25.3055C363.912 29.9074 366.259 35.9305 365.773 42.2638C365.213 49.5694 360.921 56.7407 354.287 61.4351C351.171 63.6435 350.584 64.4259 350.44 64.6759C350.084 65.8055 351.259 71.0972 351.704 73.0926C351.949 74.2079 351.942 75.3641 351.682 76.4762C351.422 77.5883 350.917 78.6282 350.203 79.5197C349.489 80.4111 348.585 81.1315 347.557 81.628C346.528 82.1244 345.402 82.3844 344.259 82.3888V82.3888Z" fill="#4FFEF9"/>
<path d="M347.94 108.88C352.831 108.88 356.796 104.914 356.796 100.023C356.796 95.1318 352.831 91.1666 347.94 91.1666C343.049 91.1666 339.083 95.1318 339.083 100.023C339.083 104.914 343.049 108.88 347.94 108.88Z" fill="#4FFEF9"/>
</svg>
