<svg width="400" height="206" viewBox="0 0 400 206" fill="none" xmlns="http://www.w3.org/2000/svg">
<path d="M198.942 166.217C156.887 166.217 122.766 175.122 122.766 185.966C122.766 196.899 156.887 205.803 198.942 205.803C236.413 205.803 267.624 198.75 273.972 189.493C274.765 188.346 275.118 187.2 275.118 186.054C275.118 175.122 240.998 166.217 198.942 166.217ZM198.942 188.787C174.696 188.787 155.123 185.878 155.123 182.263C155.123 182.263 155.123 182.175 155.123 181.999C155.123 181.91 155.123 181.91 155.211 181.822C155.211 181.822 155.211 181.734 155.3 181.734C156.975 178.384 175.931 175.739 198.942 175.739C221.16 175.739 239.499 178.207 242.32 181.381C242.585 181.646 242.673 181.91 242.673 182.175V182.263C242.761 185.878 223.1 188.787 198.942 188.787Z" fill="#3E3E3E"/>
<path d="M107.601 172.477H34.2467C32.3952 172.477 30.5437 173.094 29.0449 174.24L0.831573 196.37C-0.490927 197.428 0.214411 199.544 1.88958 199.544H79.3881C81.3277 199.544 83.2674 198.75 84.6781 197.428L108.395 174.504C109.188 173.799 108.659 172.477 107.601 172.477Z" fill="#3E3E3E"/>
<path d="M398.64 172.477H325.197C323.345 172.477 321.494 173.094 319.995 174.24L291.782 196.37C290.459 197.428 291.164 199.544 292.84 199.544H370.338C372.278 199.544 374.217 198.75 375.628 197.428L399.345 174.504C400.227 173.799 399.698 172.477 398.64 172.477Z" fill="#3E3E3E"/>
<path d="M198.942 162.602C156.887 162.602 122.766 171.507 122.766 182.351C122.766 193.284 156.887 202.189 198.942 202.189C236.413 202.189 267.624 195.135 273.972 185.878C274.765 184.732 275.118 183.585 275.118 182.439C275.118 171.507 240.998 162.602 198.942 162.602ZM198.942 185.172C174.696 185.172 155.123 182.263 155.123 178.648C155.123 178.648 155.123 178.56 155.123 178.384C155.123 178.295 155.123 178.295 155.211 178.207C155.211 178.207 155.211 178.119 155.3 178.119C156.975 174.769 175.931 172.124 198.942 172.124C221.16 172.124 239.499 174.592 242.32 177.766C242.585 178.031 242.673 178.295 242.673 178.56V178.648C242.761 182.263 223.1 185.172 198.942 185.172Z" fill="#929292"/>
<path d="M273.972 185.878C267.624 195.135 236.501 202.189 198.942 202.189C156.887 202.189 122.766 193.284 122.766 182.351C122.766 182.351 135.991 198.309 196.297 198.309C248.139 198.398 269.035 188.611 273.972 185.878Z" fill="#696969"/>
<path d="M242.32 177.767C239.411 174.593 221.072 172.124 198.942 172.124C175.842 172.124 156.975 174.769 155.3 178.119C156.093 176.18 161.383 169.479 198.942 169.479C233.503 169.479 240.821 175.474 242.32 177.767Z" fill="#696969"/>
<path d="M108.219 172.476L92.7894 62.0918C92.6131 60.9456 91.6433 60.064 90.4089 60.064H69.6016C68.1909 60.064 67.0448 61.2983 67.2211 62.7971L72.4229 104.5C72.5993 106.175 71.3649 107.586 69.6898 107.586H45.8848C44.3859 107.586 43.1516 106.44 43.0634 104.941L41.1238 62.4445C41.0356 61.122 39.9776 60.1521 38.7433 60.1521H19.2584C17.8478 60.1521 16.7898 61.2983 16.8779 62.6208L19.5229 135.27C19.6111 137.562 21.5508 139.414 23.8431 139.414H76.8313L80.9751 172.653H108.219V172.476Z" fill="#165A58"/>
<path d="M399.257 172.476L383.828 62.0918C383.651 60.9456 382.681 60.064 381.447 60.064H360.64C359.229 60.064 358.083 61.2983 358.259 62.7971L363.461 104.5C363.637 106.175 362.403 107.586 360.728 107.586H336.923C335.424 107.586 334.19 106.44 334.102 104.941L332.162 62.4445C332.074 61.122 331.016 60.1521 329.781 60.1521H310.385C308.974 60.1521 307.916 61.2983 308.004 62.6208L310.649 135.27C310.737 137.562 312.677 139.414 314.969 139.414H367.958L372.101 172.653H399.257V172.476Z" fill="#165A58"/>
<path d="M92.1719 63.238L80.5339 195.135C80.3576 197.604 78.2416 199.544 75.7729 199.544H58.3159C55.4064 199.544 53.2023 196.987 53.5549 194.166L60.8728 132.361L8.58992 133.242C5.68042 133.242 3.47625 130.686 4.00525 127.864L4.18159 126.718L16.1723 62.4445C16.5249 60.6812 18.0238 59.3587 19.8753 59.3587H36.5388C38.8311 59.3587 40.5944 61.4747 40.2418 63.767L33.1003 104.324C32.8358 105.999 34.0701 107.409 35.7453 107.409H60.6964L66.5154 62.3563C66.7799 60.593 68.2788 59.2705 70.0421 59.2705H88.6453C90.6731 59.3587 92.3483 61.2102 92.1719 63.238Z" fill="#929292"/>
<path d="M61.2257 126.718L60.7849 132.361L8.50203 133.242C5.59253 133.242 3.38836 130.686 3.91736 127.864L4.0937 126.718H61.2257V126.718Z" fill="#696969"/>
<path d="M92.1722 63.238L80.5342 195.135C80.3578 197.604 78.2418 199.544 75.7732 199.544H73.1282L86.9703 59.3586H88.6455C90.6733 59.3586 92.3485 61.2101 92.1722 63.238Z" fill="#696969"/>
<path d="M33.0125 104.412C32.748 106.087 33.9823 107.498 35.6575 107.498H30.5438C28.6923 107.498 27.1935 105.822 27.5461 103.971L35.393 59.4468H36.5391C38.8315 59.4468 40.5948 61.5628 40.2421 63.8551L33.0125 104.412Z" fill="#696969"/>
<path d="M383.122 63.238L371.484 195.135C371.308 197.604 369.192 199.544 366.723 199.544H349.266C346.357 199.544 344.152 196.987 344.505 194.166L351.823 132.361L299.54 133.242C296.631 133.242 294.426 130.686 294.955 127.864L295.132 126.718L307.122 62.4445C307.475 60.6812 308.974 59.3587 310.825 59.3587H327.489C329.781 59.3587 331.545 61.4747 331.192 63.767L324.05 104.324C323.786 105.999 325.02 107.409 326.695 107.409H351.647L357.466 62.3563C357.73 60.593 359.229 59.2705 360.992 59.2705H379.595C381.711 59.3587 383.387 61.2102 383.122 63.238Z" fill="#929292"/>
<path d="M352.264 126.718L351.823 132.361L299.54 133.242C296.631 133.242 294.426 130.686 294.955 127.864L295.132 126.718H352.264V126.718Z" fill="#696969"/>
<path d="M383.122 63.238L371.484 195.135C371.308 197.604 369.192 199.544 366.723 199.544H364.078L377.92 59.3586H379.595C381.711 59.3586 383.387 61.2101 383.122 63.238Z" fill="#696969"/>
<path d="M324.05 104.412C323.786 106.087 325.02 107.498 326.695 107.498H321.582C319.73 107.498 318.231 105.822 318.584 103.971L326.431 59.4468H327.577C329.869 59.4468 331.633 61.5628 331.28 63.8551L324.05 104.412Z" fill="#696969"/>
<path opacity="0.28" d="M164.116 90.1289L146.042 181.822C145.072 186.76 148.246 191.432 152.566 191.432H248.315C252.547 191.432 255.721 186.936 254.928 182.175L240.116 90.4816C239.499 86.7786 236.766 84.1336 233.503 84.1336H170.729C167.555 84.0454 164.822 86.6022 164.116 90.1289Z" fill="#929292"/>
<path d="M245.758 95.8597L254.487 124.866C254.663 125.484 255.28 125.836 255.898 125.572C256.338 125.395 256.691 124.866 256.515 124.337L250.784 94.6253C250.431 93.0383 248.668 92.1567 247.169 92.7738C246.023 93.3028 245.406 94.5372 245.758 95.8597Z" fill="#32B1B1"/>
<path d="M229.271 106.351L234.914 128.746C235.002 129.187 235.443 129.363 235.796 129.275C236.148 129.187 236.325 128.834 236.236 128.481L232.622 105.646C232.445 104.588 231.299 103.883 230.241 104.324C229.536 104.676 229.095 105.47 229.271 106.351Z" fill="#32B1B1"/>
<path d="M155.74 98.681L148.422 120.987C148.334 121.428 147.805 121.604 147.453 121.428C147.1 121.252 146.924 120.899 147.012 120.546L152.302 97.7111C152.566 96.6531 153.801 96.036 154.77 96.4768C155.652 96.9176 156.005 97.7993 155.74 98.681Z" fill="#32B1B1"/>
<path d="M170.288 105.558L160.766 146.996C160.677 147.437 160.237 147.613 159.884 147.525C159.531 147.437 159.355 147.084 159.443 146.732L166.937 104.853C167.114 103.795 168.26 103.089 169.318 103.53C170.111 103.795 170.552 104.676 170.288 105.558Z" fill="#32B1B1"/>
<path d="M190.478 110.407L185.893 140.472C185.805 140.913 185.364 141.177 185.012 141.001C184.659 140.913 184.483 140.56 184.483 140.207L186.951 109.878C187.128 108.82 188.186 108.115 189.244 108.467C190.125 108.644 190.654 109.525 190.478 110.407Z" fill="#32B1B1"/>
<path d="M214.107 109.79L215.253 157.488C215.253 157.929 214.9 158.194 214.459 158.194C214.107 158.105 213.842 157.841 213.842 157.488L210.58 109.79C210.58 108.644 211.55 107.85 212.608 108.027C213.489 108.203 214.107 108.997 214.107 109.79Z" fill="#32B1B1"/>
<path d="M122.502 66.5002C121.532 65.354 120.826 64.2079 120.297 63.0617L118.27 49.484L122.942 53.8042L122.502 66.5002Z" fill="#727272"/>
<path d="M254.046 71.0848C254.046 71.0848 251.137 77.1683 244.789 83.9572C236.854 92.4212 223.452 102.031 203.527 102.031C189.508 102.031 179.104 97.3585 171.698 91.7158C160.06 82.8992 155.476 71.6138 155.476 71.6138L254.046 71.0848Z" fill="#165A58"/>
<path d="M254.046 71.0848C254.046 71.0848 251.137 77.1683 244.789 83.9572C238 86.6022 229.624 88.8063 219.22 90.217C198.766 92.9502 182.807 92.7738 171.698 91.7158C160.06 82.8992 155.476 71.6138 155.476 71.6138L254.046 71.0848Z" fill="#072359"/>
<path d="M285.081 48.955C285.081 48.955 284.552 54.5095 282.789 61.3865C282.524 62.3563 282.083 63.5025 281.378 64.5605C279.526 67.5582 276 70.8203 270.269 73.9062C269.299 74.4352 268.153 74.9642 267.007 75.4932C266.125 75.934 265.243 76.2867 264.274 76.7275C262.951 77.2565 261.629 77.7855 260.218 78.3145C255.281 80.0778 249.462 81.5767 242.585 82.9874C242.056 83.0755 241.615 83.1637 241.086 83.2518C239.763 83.5163 238.176 83.6927 236.501 83.869C229.448 84.6625 220.102 85.1915 210.139 85.3678C208.288 85.3678 206.436 85.456 204.585 85.456C195.151 85.5442 185.629 85.2797 177.341 84.8389C175.578 84.7507 173.815 84.6625 172.228 84.4862C167.378 84.1335 163.146 83.6045 160.061 82.9874C155.564 82.1057 151.508 81.1358 147.894 80.0778C146.395 79.637 144.984 79.1962 143.573 78.7553C132.641 75.1405 126.028 70.7322 122.59 66.6765C122.061 66.0593 121.62 65.5303 121.267 64.9132C120.915 64.3842 120.562 63.767 120.386 63.238C120.121 62.6208 119.857 62.0918 119.768 61.4747C118.975 58.2125 118.358 54.8622 118.093 52.3053C117.741 49.3958 117.652 47.4562 117.652 47.4562L201.411 53.716L285.169 49.0432L285.081 48.955Z" fill="#3BEDE8"/>
<path d="M284.993 48.7787C284.993 49.3958 284.552 50.1893 283.758 51.1592C281.554 53.716 276.264 57.5072 267.271 60.9457C266.125 61.3865 264.891 61.8273 263.568 62.2682C262.951 62.4445 262.334 62.709 261.717 62.8853C260.394 63.3262 258.984 63.767 257.485 64.1196C252.459 65.5303 246.64 66.8528 239.94 67.8226C238.353 68.0871 236.677 68.3517 234.914 68.528C227.508 69.4978 219.22 70.115 209.963 70.2913C208.2 70.2913 206.348 70.3795 204.497 70.3795H204.408C194.975 70.3795 186.246 69.9386 178.399 69.2333C176.636 69.057 174.873 68.8806 173.197 68.7043C164.557 67.7345 156.887 66.3238 150.274 64.7368C148.775 64.3841 147.276 63.9433 145.866 63.5907C132.729 59.9758 124.089 55.4793 120.121 51.7763C119.328 51.071 118.71 50.2775 118.27 49.6603C117.741 48.8668 117.476 48.1615 117.476 47.4562C117.476 41.1963 142.163 27.8832 204.849 27.8832C267.536 27.795 284.993 44.4585 284.993 48.7787Z" fill="#165A58"/>
<path d="M168.701 35.0247L122.854 53.8042C121.091 52.658 118.622 50.1894 118.181 49.484L167.202 34.2312L168.701 35.0247Z" fill="#072359"/>
<path d="M284.993 48.8668C284.993 49.3958 284.552 50.1893 283.759 51.1592L236.677 35.0247L238.176 34.3193L284.993 48.8668Z" fill="#072359"/>
<path d="M176.46 39.8738L150.274 64.6486C148.775 64.296 147.276 63.8551 145.866 63.5025L174.873 39.7856L176.46 39.8738Z" fill="#072359"/>
<path d="M190.831 42.7834L178.399 69.2334C176.636 69.057 174.873 68.8807 173.198 68.7044L189.244 42.6952L190.831 42.7834Z" fill="#072359"/>
<path d="M240.028 67.9109C238.441 68.1754 236.677 68.4398 235.002 68.6162L222.835 42.7834L224.51 42.6952L240.028 67.9109Z" fill="#072359"/>
<path d="M209.963 70.3795C208.2 70.3795 206.348 70.4677 204.497 70.4677H204.408L206.524 44.4585L208.2 44.3704L209.963 70.3795Z" fill="#072359"/>
<path d="M267.183 60.9456C266.037 61.3865 264.802 61.8273 263.48 62.2681L231.828 39.8738L233.503 39.7856L267.183 60.9456Z" fill="#072359"/>
<path d="M210.051 85.1914C208.2 85.1914 206.348 85.2796 204.497 85.2796V70.3794L209.963 70.2913L210.051 85.1914Z" fill="#727272"/>
<path d="M240.909 83.0755C239.499 83.34 238 83.5163 236.325 83.6926L234.914 68.528L239.94 67.8226L240.909 83.0755Z" fill="#727272"/>
<path d="M270.181 73.818C269.211 74.347 268.065 74.876 266.919 75.405L263.568 62.18L267.183 60.9457L270.181 73.818Z" fill="#727272"/>
<path d="M178.399 69.2334L177.341 84.6625C175.578 84.5744 173.815 84.4862 172.228 84.3099L173.286 68.7043L178.399 69.2334Z" fill="#727272"/>
<path d="M150.274 64.6486L147.806 79.9015C146.307 79.4606 144.896 79.0198 143.485 78.579L145.778 63.5024L150.274 64.6486Z" fill="#727272"/>
<path d="M122.942 53.9805L121.179 64.825C120.826 64.296 120.474 63.6788 120.297 63.1498C120.033 62.5327 119.768 62.0037 119.68 61.3865C118.887 58.1243 118.27 54.774 118.005 52.2171L118.27 49.5721C118.27 49.5721 119.768 51.3355 120.386 51.9526C120.915 52.4816 122.942 53.9805 122.942 53.9805Z" fill="#727272"/>
<path d="M200.705 54.9504C226.659 54.9504 247.698 48.9899 247.698 41.6373C247.698 34.2846 226.659 28.3241 200.705 28.3241C174.752 28.3241 153.713 34.2846 153.713 41.6373C153.713 48.9899 174.752 54.9504 200.705 54.9504Z" fill="#072359"/>
<path d="M243.643 39.5212C243.643 39.5212 240.204 43.4005 231.74 46.7509C225.48 49.2195 216.487 51.3355 204.144 51.3355C197.355 51.3355 191.448 50.7184 186.511 49.7485C170.023 46.5745 162.882 39.6975 162.882 39.6975C162.882 39.6975 166.497 12.8949 189.067 3.81371C193.652 1.96221 199.118 0.81604 205.466 0.81604C236.501 0.81604 243.643 39.5212 243.643 39.5212Z" fill="#3BEDE8"/>
<path d="M186.511 49.7486C170.023 46.5746 162.882 39.6976 162.882 39.6976C162.882 39.6976 166.497 12.8949 189.067 3.81372C184.659 7.51672 180.339 14.9227 179.634 27.0016C178.928 35.9946 181.044 43.4887 186.511 49.7486Z" fill="#3E3E3E"/>
<path d="M243.643 39.5212C243.643 39.5212 240.204 43.4005 231.74 46.7509C230.418 41.8135 228.39 37.4052 228.39 37.4052C228.39 37.4052 220.102 39.1685 216.399 31.3217C212.696 23.4749 221.601 17.8322 221.601 17.8322C221.601 17.8322 219.485 11.0434 208.552 6.63504C197.62 2.22671 188.891 3.81371 188.891 3.81371C193.476 1.96221 198.942 0.81604 205.29 0.81604C236.501 0.81604 243.643 39.5212 243.643 39.5212Z" fill="#00A39E"/>
<path d="M208.111 22.9459C209.426 22.9459 210.492 21.9196 210.492 20.6535C210.492 19.3875 209.426 18.3612 208.111 18.3612C206.797 18.3612 205.731 19.3875 205.731 20.6535C205.731 21.9196 206.797 22.9459 208.111 22.9459Z" fill="#00A39E"/>
<path d="M199.824 25.1501C200.846 25.1501 201.675 24.3606 201.675 23.3867C201.675 22.4129 200.846 21.6234 199.824 21.6234C198.801 21.6234 197.972 22.4129 197.972 23.3867C197.972 24.3606 198.801 25.1501 199.824 25.1501Z" fill="#00A39E"/>
<path d="M205.378 37.0526C207.375 37.0526 208.993 35.4737 208.993 33.5259C208.993 31.5782 207.375 29.9993 205.378 29.9993C203.382 29.9993 201.763 31.5782 201.763 33.5259C201.763 35.4737 203.382 37.0526 205.378 37.0526Z" fill="#00A39E"/>
</svg>
