<svg width="632" height="187" viewBox="0 0 632 187" fill="none" xmlns="http://www.w3.org/2000/svg">
<path d="M75.25 101.25H118.25V144.25H75.25V101.25ZM34.9375 36.75L59.125 79.75H10.75L34.9375 36.75ZM96.75 79.75C102.452 79.75 107.921 77.4848 111.953 73.4528C115.985 69.4208 118.25 63.9522 118.25 58.25C118.25 52.5478 115.985 47.0792 111.953 43.0472C107.921 39.0152 102.452 36.75 96.75 36.75C91.0479 36.75 85.5792 39.0152 81.5472 43.0472C77.5152 47.0792 75.25 52.5478 75.25 58.25C75.25 63.9522 77.5152 69.4208 81.5472 73.4528C85.5792 77.4848 91.0479 79.75 96.75 79.75Z" stroke="white" stroke-width="4" stroke-linejoin="round"/>
<path d="M53.75 101.25L10.75 144.25L53.75 101.25ZM10.75 101.25L53.75 144.25L10.75 101.25Z" stroke="#4FFEF9" stroke-width="4" stroke-linecap="round" stroke-linejoin="round"/>
<path d="M162.509 145.44C154.829 145.44 148.973 143.28 144.941 138.96C140.909 134.544 138.893 128.256 138.893 120.096V67.104C138.893 58.944 140.909 52.704 144.941 48.384C148.973 43.968 154.829 41.76 162.509 41.76C170.189 41.76 176.045 43.968 180.077 48.384C184.109 52.704 186.125 58.944 186.125 67.104V75.744H171.149V66.096C171.149 59.472 168.413 56.16 162.941 56.16C157.469 56.16 154.733 59.472 154.733 66.096V121.248C154.733 127.776 157.469 131.04 162.941 131.04C168.413 131.04 171.149 127.776 171.149 121.248V101.52H163.229V87.12H186.125V120.096C186.125 128.256 184.109 134.544 180.077 138.96C176.045 143.28 170.189 145.44 162.509 145.44ZM208.535 43.2H229.991L246.407 144H230.567L227.687 123.984V124.272H209.687L206.807 144H192.119L208.535 43.2ZM225.815 110.592L218.759 60.768H218.471L211.559 110.592H225.815ZM254.092 43.2H276.7L286.78 115.344H287.068L297.148 43.2H319.756V144H304.78V67.68H304.492L292.972 144H279.724L268.204 67.68H267.916V144H254.092V43.2ZM331.576 43.2H374.776V57.6H347.416V84.24H369.16V98.64H347.416V129.6H374.776V144H331.576V43.2ZM383.888 43.2H407.36C415.52 43.2 421.472 45.12 425.216 48.96C428.96 52.704 430.832 58.512 430.832 66.384V72.576C430.832 83.04 427.376 89.664 420.464 92.448V92.736C424.304 93.888 426.992 96.24 428.528 99.792C430.16 103.344 430.976 108.096 430.976 114.048V131.76C430.976 134.64 431.072 136.992 431.264 138.816C431.456 140.544 431.936 142.272 432.704 144H416.576C416 142.368 415.616 140.832 415.424 139.392C415.232 137.952 415.136 135.36 415.136 131.616V113.184C415.136 108.576 414.368 105.36 412.832 103.536C411.392 101.712 408.848 100.8 405.2 100.8H399.728V144H383.888V43.2ZM405.488 86.4C408.656 86.4 411.008 85.584 412.544 83.952C414.176 82.32 414.992 79.584 414.992 75.744V67.968C414.992 64.32 414.32 61.68 412.976 60.048C411.728 58.416 409.712 57.6 406.928 57.6H399.728V86.4H405.488ZM464.863 145.44C457.087 145.44 451.135 143.232 447.007 138.816C442.879 134.4 440.814 128.16 440.814 120.096V67.104C440.814 59.04 442.879 52.8 447.007 48.384C451.135 43.968 457.087 41.76 464.863 41.76C472.639 41.76 478.591 43.968 482.719 48.384C486.847 52.8 488.911 59.04 488.911 67.104V120.096C488.911 128.16 486.847 134.4 482.719 138.816C478.591 143.232 472.639 145.44 464.863 145.44ZM464.863 131.04C470.335 131.04 473.07 127.728 473.07 121.104V66.096C473.07 59.472 470.335 56.16 464.863 56.16C459.391 56.16 456.655 59.472 456.655 66.096V121.104C456.655 127.728 459.391 131.04 464.863 131.04ZM522.519 145.44C514.743 145.44 508.791 143.232 504.663 138.816C500.535 134.4 498.471 128.16 498.471 120.096V67.104C498.471 59.04 500.535 52.8 504.663 48.384C508.791 43.968 514.743 41.76 522.519 41.76C530.295 41.76 536.247 43.968 540.375 48.384C544.503 52.8 546.567 59.04 546.567 67.104V120.096C546.567 128.16 544.503 134.4 540.375 138.816C536.247 143.232 530.295 145.44 522.519 145.44ZM522.519 131.04C527.991 131.04 530.727 127.728 530.727 121.104V66.096C530.727 59.472 527.991 56.16 522.519 56.16C517.047 56.16 514.311 59.472 514.311 66.096V121.104C514.311 127.728 517.047 131.04 522.519 131.04ZM557.279 43.2H579.887L589.967 115.344H590.255L600.335 43.2H622.943V144H607.967V67.68H607.679L596.159 144H582.911L571.391 67.68H571.103V144H557.279V43.2Z" fill="white"/>
<path d="M132 161.109H632" stroke="#4FFEF9" stroke-width="5"/>
<path fill-rule="evenodd" clip-rule="evenodd" d="M347 21.2957H131V26.2957H347V21.2957ZM415 26.2957H631V21.2957H415V26.2957Z" fill="#4FFEF9"/>
<path d="M364.918 10.4H360.778V6.80005H373.018V10.4H368.878V32H364.918V10.4ZM374.935 6.80005H378.895V17.06H383.143V6.80005H387.103V32H383.143V20.66H378.895V32H374.935V6.80005ZM390.052 6.80005H400.852V10.4H394.012V17.06H399.448V20.66H394.012V28.4H400.852V32H390.052V6.80005Z" fill="white"/>
</svg>
