<svg width="500" height="383" viewBox="0 0 500 383" fill="none" xmlns="http://www.w3.org/2000/svg">
<g clip-path="url(#clip0_11:3)">
<path d="M31.4458 249.339C23.7811 249.339 17.9368 247.18 13.9129 242.862C9.88894 238.448 7.87695 232.162 7.87695 224.006V171.035C7.87695 162.878 9.88894 156.641 13.9129 152.323C17.9368 147.908 23.7811 145.701 31.4458 145.701C39.1105 145.701 44.9548 147.908 48.9788 152.323C53.0027 156.641 55.0147 162.878 55.0147 171.035V179.671H40.0686V170.027C40.0686 163.406 37.338 160.095 31.8769 160.095C26.4159 160.095 23.6853 163.406 23.6853 170.027V225.157C23.6853 231.682 26.4159 234.945 31.8769 234.945C37.338 234.945 40.0686 231.682 40.0686 225.157V205.437H32.1644V191.043H55.0147V224.006C55.0147 232.162 53.0027 238.448 48.9788 242.862C44.9548 247.18 39.1105 249.339 31.4458 249.339ZM77.38 147.141H98.7931L115.177 247.9H99.368L96.4937 227.892V228.18H78.5297L75.6554 247.9H60.9967L77.38 147.141ZM94.6255 214.505L87.5836 164.702H87.2961L80.3979 214.505H94.6255ZM122.846 147.141H145.409L155.469 219.255H155.757L165.817 147.141H188.379V247.9H173.433V171.611H173.146L161.649 247.9H148.427L136.93 171.611H136.643V247.9H122.846V147.141ZM200.176 147.141H243.29V161.535H215.984V188.164H237.685V202.558H215.984V233.506H243.29V247.9H200.176V147.141ZM252.383 147.141H275.809C283.952 147.141 289.892 149.06 293.629 152.898C297.366 156.641 299.234 162.446 299.234 170.315V176.505C299.234 186.964 295.785 193.586 288.886 196.369V196.657C292.719 197.808 295.401 200.159 296.934 203.71C298.563 207.26 299.378 212.01 299.378 217.96V235.665C299.378 238.544 299.473 240.895 299.665 242.718C299.857 244.445 300.336 246.173 301.102 247.9H285.006C284.431 246.269 284.048 244.733 283.857 243.294C283.665 241.854 283.569 239.263 283.569 235.521V217.096C283.569 212.49 282.803 209.275 281.27 207.452C279.833 205.629 277.294 204.717 273.653 204.717H268.192V247.9H252.383V147.141ZM273.94 190.323C277.102 190.323 279.449 189.507 280.982 187.876C282.611 186.245 283.425 183.51 283.425 179.671V171.899C283.425 168.252 282.755 165.613 281.413 163.982C280.168 162.35 278.156 161.535 275.378 161.535H268.192V190.323H273.94ZM333.197 249.339C325.436 249.339 319.496 247.132 315.377 242.718C311.257 238.304 309.196 232.066 309.196 224.006V171.035C309.196 162.974 311.257 156.737 315.377 152.323C319.496 147.908 325.436 145.701 333.197 145.701C340.957 145.701 346.897 147.908 351.017 152.323C355.137 156.737 357.197 162.974 357.197 171.035V224.006C357.197 232.066 355.137 238.304 351.017 242.718C346.897 247.132 340.957 249.339 333.197 249.339ZM333.197 234.945C338.658 234.945 341.388 231.634 341.388 225.013V170.027C341.388 163.406 338.658 160.095 333.197 160.095C327.736 160.095 325.005 163.406 325.005 170.027V225.013C325.005 231.634 327.736 234.945 333.197 234.945ZM390.738 249.339C382.977 249.339 377.037 247.132 372.917 242.718C368.798 238.304 366.738 232.066 366.738 224.006V171.035C366.738 162.974 368.798 156.737 372.917 152.323C377.037 147.908 382.977 145.701 390.738 145.701C398.498 145.701 404.438 147.908 408.558 152.323C412.678 156.737 414.738 162.974 414.738 171.035V224.006C414.738 232.066 412.678 238.304 408.558 242.718C404.438 247.132 398.498 249.339 390.738 249.339ZM390.738 234.945C396.199 234.945 398.929 231.634 398.929 225.013V170.027C398.929 163.406 396.199 160.095 390.738 160.095C385.277 160.095 382.546 163.406 382.546 170.027V225.013C382.546 231.634 385.277 234.945 390.738 234.945ZM425.428 147.141H447.991L458.051 219.255H458.339L468.399 147.141H490.961V247.9H476.015V171.611H475.728L464.231 247.9H451.009L439.512 171.611H439.225V247.9H425.428V147.141Z" fill="white"/>
<path d="M0.998047 265.002H500" stroke="white" stroke-width="5"/>
<path fill-rule="evenodd" clip-rule="evenodd" d="M215.569 125.245H0V130.243H215.569V125.245ZM283.433 130.243H499.002V125.245H283.433V130.243Z" fill="white"/>
<path d="M233.451 114.354H229.319V110.755H241.535V114.354H237.403V135.945H233.451V114.354ZM243.448 110.755H247.4V121.011H251.64V110.755H255.592V135.945H251.64V124.61H247.4V135.945H243.448V110.755ZM258.535 110.755H269.313V114.354H262.487V121.011H267.912V124.61H262.487V132.347H269.313V135.945H258.535V110.755Z" fill="#4FFEF9"/>
<path fill-rule="evenodd" clip-rule="evenodd" d="M402.39 284.231C370.693 336.919 312.915 372.182 246.873 372.182C180.831 372.182 123.055 336.919 91.3575 284.231H79.8115C112.529 342.67 175.083 382.178 246.873 382.178C318.665 382.178 381.218 342.67 413.936 284.231H402.39ZM85.0708 109.302C114.979 50.3863 176.194 9.99595 246.873 9.99595C317.554 9.99595 378.768 50.3863 408.677 109.302H419.801C389.123 44.6841 323.222 0 246.873 0C170.525 0 104.624 44.6841 73.9463 109.302H85.0708Z" fill="#4FFEF9"/>
</g>
<defs>
<clipPath id="clip0_11:3">
<rect width="500" height="382.845" fill="white"/>
</clipPath>
</defs>
</svg>
