<svg width="45" height="45" viewBox="0 0 45 45" fill="#fff" xmlns="http://www.w3.org/2000/svg">
<path fill-rule="evenodd" clip-rule="evenodd" d="M32.2314 29.0208L44.3359 41.1252C44.7613 41.551 45.0002 42.1283 45 42.7302C44.9998 43.3321 44.7605 43.9093 44.3347 44.3347C43.909 44.7602 43.3317 44.9991 42.7298 44.9989C42.1279 44.9986 41.5507 44.7593 41.1253 44.3336L29.0208 32.2292C25.4023 35.0318 20.8521 36.3507 16.2957 35.9175C11.7393 35.4844 7.5191 33.3317 4.49355 29.8974C1.468 26.4631 -0.13559 22.0052 0.00899132 17.4306C0.153573 12.8559 2.03547 8.50821 5.27184 5.27184C8.50821 2.03547 12.856 0.153573 17.4306 0.00899131C22.0052 -0.13559 26.4631 1.468 29.8974 4.49355C33.3317 7.51909 35.4844 11.7393 35.9175 16.2957C36.3507 20.8521 35.0318 25.4023 32.2292 29.0208H32.2314ZM18.0008 31.4979C21.5811 31.4979 25.0147 30.0757 27.5463 27.5441C30.078 25.0124 31.5002 21.5788 31.5002 17.9986C31.5002 14.4183 30.078 10.9847 27.5463 8.45308C25.0147 5.92146 21.5811 4.49921 18.0008 4.49921C14.4206 4.49921 10.987 5.92146 8.45534 8.45308C5.92372 10.9847 4.50147 14.4183 4.50147 17.9986C4.50147 21.5788 5.92372 25.0124 8.45534 27.5441C10.987 30.0757 14.4206 31.4979 18.0008 31.4979V31.4979Z" fill="#fff"/>
</svg>
