<svg width="129" height="129" viewBox="0 0 129 129" fill="none" xmlns="http://www.w3.org/2000/svg">
<path d="M75.25 75.25H118.25V118.25H75.25V75.25ZM34.9375 10.75L59.125 53.75H10.75L34.9375 10.75ZM96.75 53.75C102.452 53.75 107.921 51.4848 111.953 47.4528C115.985 43.4208 118.25 37.9522 118.25 32.25C118.25 26.5478 115.985 21.0792 111.953 17.0472C107.921 13.0152 102.452 10.75 96.75 10.75C91.0479 10.75 85.5792 13.0152 81.5472 17.0472C77.5152 21.0792 75.25 26.5478 75.25 32.25C75.25 37.9522 77.5152 43.4208 81.5472 47.4528C85.5792 51.4848 91.0479 53.75 96.75 53.75Z" stroke="white" stroke-width="4" stroke-linejoin="round"/>
<path d="M53.75 75.25L10.75 118.25M10.75 75.25L53.75 118.25L10.75 75.25Z" stroke="#4FFEF9" stroke-width="4" stroke-linecap="round" stroke-linejoin="round"/>
</svg>
