<svg width="41" height="41" viewBox="0 0 41 41" fill="none" xmlns="http://www.w3.org/2000/svg">
<path d="M4.8375 16.1737C4.50181 17.4947 4.33247 18.8533 4.3335 20.2171C4.3335 21.6121 4.5095 22.9667 4.8375 24.2606H10.5335C10.2639 21.5718 10.2639 18.8624 10.5335 16.1737H4.8375ZM6.4735 12.1303H11.1655C11.6975 9.66986 12.4655 7.46619 13.4075 5.6325C10.5039 7.04652 8.08793 9.31047 6.4735 12.1303ZM35.8295 16.1737H30.1335C30.4031 18.8624 30.4031 21.5718 30.1335 24.2606H35.8295C36.5028 21.6079 36.5028 18.8264 35.8295 16.1737ZM34.1935 12.1303C32.5791 9.31047 30.1631 7.04652 27.2595 5.6325C28.2035 7.46619 28.9695 9.66986 29.5015 12.1303H34.1935ZM14.5575 16.1737C14.4076 17.5162 14.3329 18.8661 14.3335 20.2171C14.3335 21.602 14.4095 22.9566 14.5575 24.2606H26.1095C26.4107 21.5735 26.4107 18.8607 26.1095 16.1737H14.5575ZM15.2735 12.1303H25.3935C25.0295 10.6106 24.5045 9.13494 23.8275 7.72901C22.5715 5.19176 21.2275 4.04343 20.3335 4.04343C19.4375 4.04343 18.0955 5.19176 16.8395 7.72901C16.2095 9.00674 15.6795 10.4927 15.2735 12.1303ZM6.4735 28.304C8.08793 31.1238 10.5039 33.3878 13.4075 34.8018C12.4635 32.9681 11.6975 30.7644 11.1655 28.304H6.4735ZM34.1935 28.304H29.5015C28.9695 30.7644 28.2015 32.9681 27.2595 34.8018C30.1631 33.3878 32.5791 31.1238 34.1935 28.304ZM15.2735 28.304C15.6795 29.9416 16.2095 31.4275 16.8395 32.7053C18.0955 35.2425 19.4395 36.3909 20.3335 36.3909C21.2295 36.3909 22.5715 35.2425 23.8275 32.7053C24.4575 31.4275 24.9875 29.9416 25.3935 28.304H15.2735ZM20.3335 40.4343C9.2875 40.4343 0.333496 31.3831 0.333496 20.2171C0.333496 9.05122 9.2875 0 20.3335 0C31.3795 0 40.3335 9.05122 40.3335 20.2171C40.3335 31.3831 31.3795 40.4343 20.3335 40.4343Z" fill="#4FFEF9"/>
</svg>
