<svg width="55" height="55" viewBox="0 0 55 55" fill="none" xmlns="http://www.w3.org/2000/svg">
<path d="M37.8125 23.9551H17.1875C16.9512 23.9551 16.7578 24.1484 16.7578 24.3848V45.9766C16.7578 46.2129 16.9512 46.4062 17.1875 46.4062H37.8125C38.0488 46.4062 38.2422 46.2129 38.2422 45.9766V24.3848C38.2422 24.1484 38.0488 23.9551 37.8125 23.9551ZM20.1953 27.3926H34.8047V33.6768H20.1953V27.3926ZM34.8047 42.9688H20.1953V36.6846H34.8047V42.9688Z" fill="#4FFEF9"/>
<path d="M22.7734 40.1758C22.7734 40.6316 22.9545 41.0688 23.2768 41.3911C23.5992 41.7135 24.0363 41.8945 24.4922 41.8945C24.948 41.8945 25.3852 41.7135 25.7075 41.3911C26.0299 41.0688 26.2109 40.6316 26.2109 40.1758C26.2109 39.7199 26.0299 39.2828 25.7075 38.9604C25.3852 38.6381 24.948 38.457 24.4922 38.457C24.0363 38.457 23.5992 38.6381 23.2768 38.9604C22.9545 39.2828 22.7734 39.7199 22.7734 40.1758ZM22.7734 30.6152C22.7734 31.0711 22.9545 31.5082 23.2768 31.8306C23.5992 32.1529 24.0363 32.334 24.4922 32.334C24.948 32.334 25.3852 32.1529 25.7075 31.8306C26.0299 31.5082 26.2109 31.0711 26.2109 30.6152C26.2109 30.1594 26.0299 29.7222 25.7075 29.3999C25.3852 29.0776 24.948 28.8965 24.4922 28.8965C24.0363 28.8965 23.5992 29.0776 23.2768 29.3999C22.9545 29.7222 22.7734 30.1594 22.7734 30.6152Z" fill="#4FFEF9"/>
<path d="M43.5812 19.814C41.1212 13.3203 34.8532 8.70117 27.5109 8.70117C20.1686 8.70117 13.9005 13.3149 11.4406 19.8086C6.81607 21.0278 3.4108 25.2549 3.43766 30.2715C3.46988 35.8789 7.82047 40.439 13.299 40.9277C13.5514 40.9492 13.7663 40.7505 13.7663 40.498V37.2539C13.7663 37.0391 13.6051 36.8564 13.3903 36.8296C11.9401 36.647 10.5705 36.0132 9.51773 34.9766C8.22867 33.7144 7.51969 32.0171 7.51969 30.2178C7.51969 28.7139 8.00846 27.2959 8.92691 26.1143C9.82389 24.9648 11.0861 24.1323 12.4772 23.7671L14.5129 23.23L15.2594 21.2588C15.7213 20.0342 16.3659 18.8848 17.1769 17.8481C17.9772 16.8169 18.9279 15.9145 19.9914 15.1626C22.1989 13.6104 24.7985 12.7886 27.5109 12.7886C30.2233 12.7886 32.8229 13.6104 35.0304 15.168C36.0993 15.9199 37.0446 16.8223 37.8449 17.8535C38.6559 18.8901 39.3004 20.0395 39.7624 21.2642L40.5036 23.23L42.5338 23.7671C45.445 24.5405 47.4806 27.1885 47.4806 30.2124C47.4806 32.0171 46.7716 33.709 45.4826 34.9712C44.4352 36.0024 43.0709 36.6416 41.6208 36.8242C41.4059 36.8511 41.2501 37.0337 41.2501 37.2485V40.498C41.2501 40.7505 41.4704 40.9492 41.7228 40.9277C47.1852 40.4336 51.5251 35.8789 51.5626 30.2822C51.5949 25.2656 48.195 21.0386 43.5812 19.814Z" fill="#4FFEF9"/>
</svg>
