<svg width="61" height="61" viewBox="0 0 61 61" fill="none" xmlns="http://www.w3.org/2000/svg">
<path fill-rule="evenodd" clip-rule="evenodd" d="M59.6333 30.3721L30.1966 3.2998L0.569732 30.3691C0.265455 30.657 0.0967284 31.043 0.0998974 31.4438C0.103066 31.8447 0.277877 32.2284 0.586675 32.5123C0.895473 32.7961 1.31355 32.9575 1.75085 32.9615C2.18815 32.9655 2.60969 32.812 2.92467 32.5339L6.7506 29.039V56.677C6.7506 57.0824 6.92632 57.4713 7.23909 57.758C7.55187 58.0447 7.97608 58.2058 8.41841 58.2058H23.4286C23.8709 58.2058 24.2952 58.0447 24.6079 57.758C24.9207 57.4713 25.0964 57.0824 25.0964 56.677V43.3136C25.0964 42.9081 25.2721 42.5192 25.5849 42.2325C25.8977 41.9458 26.3219 41.7847 26.7642 41.7847H33.4354C33.8778 41.7847 34.302 41.9458 34.6147 42.2325C34.9275 42.5192 35.1032 42.9081 35.1032 43.3136V56.6754C35.1032 57.0809 35.2789 57.4698 35.5917 57.7565C35.9045 58.0432 36.3287 58.2042 36.771 58.2042H51.7812C52.2236 58.2042 52.6478 58.0432 52.9606 57.7565C53.2733 57.4698 53.449 57.0809 53.449 56.6754V29.0176L57.2716 32.5323C57.5858 32.8113 58.0068 32.9659 58.4441 32.963C58.8814 32.9601 59.3 32.7999 59.6097 32.5168C59.9194 32.2337 60.0954 31.8505 60.0998 31.4496C60.1042 31.0488 59.9366 30.6624 59.6333 30.3736V30.3721ZM50.1134 25.9477L30.1882 7.6233L10.0862 25.9905V55.1481H21.7608V43.3136C21.7608 42.0972 22.288 40.9306 23.2263 40.0704C24.1646 39.2103 25.4372 38.7271 26.7642 38.7271H33.4354C34.7624 38.7271 36.035 39.2103 36.9734 40.0704C37.9117 40.9306 38.4388 42.0972 38.4388 43.3136V55.1466H50.1134V25.9477Z" fill="white"/>
</svg>
