<svg width="30" height="30" viewBox="0 0 30 30" fill="none" xmlns="http://www.w3.org/2000/svg">
<path d="M29.0625 10.7812H18.3281L15 0.9375L11.6719 10.7812H0.9375L9.60938 16.875L6.28125 26.7188L15 20.625L23.6719 26.7188L20.3438 16.875L29.0625 10.7812Z" fill="#4FFEF9"/>
<path d="M21.6562 9.51563L23.5312 4.17188L18.6094 7.54688L19.3125 9.51563H21.6562Z" fill="#727272"/>
<path d="M13.0781 23.4375L15 29.0625L16.9219 23.4375L15 22.125L13.0781 23.4375Z" fill="#727272"/>
<path d="M23.7656 16.0781L21.9844 17.2969L22.7344 19.5469H28.7812L23.7656 16.0781Z" fill="#727272"/>
<path d="M11.3906 7.54688L6.46875 4.17188L8.34375 9.51563H10.6875L11.3906 7.54688Z" fill="#727272"/>
<path d="M6.23438 16.0781L1.21875 19.5469H7.26562L8.01562 17.2969L6.23438 16.0781Z" fill="#727272"/>
</svg>
