<svg width="41" height="41" viewBox="0 0 41 41" fill="none" xmlns="http://www.w3.org/2000/svg">
<path d="M20.625 0C18.4274 0 16.2792 0.63041 14.452 1.81151C12.6248 2.99261 11.2006 4.67136 10.3597 6.63546C9.5187 8.59956 9.29866 10.7608 9.72739 12.8459C10.1561 14.9309 11.2143 16.8462 12.7683 18.3495C14.3222 19.8527 16.302 20.8765 18.4573 21.2912C20.6127 21.706 22.8467 21.4931 24.877 20.6795C26.9073 19.866 28.6426 18.4883 29.8636 16.7206C31.0845 14.953 31.7361 12.8748 31.7361 10.7489C31.7361 7.89809 30.5655 5.16408 28.4817 3.14827C26.398 1.13247 23.5719 0 20.625 0ZM20.625 17.1982C19.3065 17.1982 18.0175 16.8199 16.9212 16.1113C15.8249 15.4026 14.9704 14.3954 14.4658 13.2169C13.9612 12.0385 13.8292 10.7417 14.0864 9.49067C14.3437 8.23962 14.9786 7.09047 15.911 6.18851C16.8433 5.28656 18.0312 4.67232 19.3244 4.42347C20.6176 4.17462 21.958 4.30234 23.1762 4.79047C24.3944 5.27861 25.4356 6.10523 26.1681 7.16582C26.9007 8.2264 27.2917 9.47332 27.2917 10.7489C27.2917 12.4593 26.5893 14.0997 25.339 15.3092C24.0888 16.5187 22.3931 17.1982 20.625 17.1982ZM40.625 40.8457V38.6959C40.625 34.7048 38.9861 30.8772 36.0689 28.0551C33.1517 25.233 29.195 23.6475 25.0694 23.6475H16.1806C12.055 23.6475 8.09835 25.233 5.18112 28.0551C2.26388 30.8772 0.625 34.7048 0.625 38.6959V40.8457H5.06944V38.6959C5.06944 35.8452 6.24008 33.1111 8.32381 31.0953C10.4076 29.0795 13.2337 27.9471 16.1806 27.9471H25.0694C28.0163 27.9471 30.8425 29.0795 32.9262 31.0953C35.0099 33.1111 36.1806 35.8452 36.1806 38.6959V40.8457H40.625Z" fill="#4FFEF9"/>
</svg>
